<?xml version="1.0" encoding="utf-8"?>
<svg xmlns="http://www.w3.org/2000/svg" viewBox="1.825 14.2437 490.402 458.2803" width="490.402px"
    height="458.28px" preserveAspectRatio="none">
    <path
        d="M 1.825 14.414 C 49.476 11.945 96.637 36.636 131.223 67.682 C 135.003 71.126 138.755 74.605 142.472 78.121 C 146.567 81.927 150.737 85.474 155.067 88.995 C 164.219 96.95 171.101 106.813 178.27 116.517 C 180.612 119.645 182.99 122.743 185.403 125.817 C 195.536 138.765 204.895 152.069 213.835 165.885 C 215.273 168.049 216.713 170.211 218.156 172.373 C 233.735 195.895 247.759 220.339 261.907 244.739 C 267.152 253.776 272.425 262.797 277.724 271.8 C 285.231 284.572 292.854 297.274 300.486 309.967 C 305.41 303.882 308.484 297.046 311.925 290.054 L 313.808 286.114 C 320.92 271.632 328.005 257.367 334.718 242.698 C 341.489 227.919 348.56 213.283 355.932 198.797 C 358.905 192.957 361.848 187.099 364.784 181.243 L 366.604 177.611 C 371.721 167.349 376.608 156.982 381.494 146.605 C 389.625 129.333 398.374 112.5 407.418 95.691 L 451.666 95.691 L 451.666 99.387 L 446.554 99.998 L 439.912 100.886 L 433.3 101.732 C 427.154 102.539 427.154 102.539 424.011 108.621 C 422.441 115.849 421.934 122.758 421.92 130.139 L 421.897 136.297 L 421.901 142.972 L 421.881 150.064 C 421.864 156.465 421.859 162.866 421.859 169.269 L 421.849 181.28 C 421.832 195.258 421.824 209.238 421.828 223.218 C 421.824 236.229 421.809 249.238 421.778 262.253 C 421.753 273.441 421.743 284.633 421.744 295.823 C 421.746 302.495 421.74 309.171 421.721 315.847 C 421.699 323.295 421.708 330.739 421.721 338.183 C 421.708 340.383 421.699 342.581 421.689 344.848 C 421.728 355.441 421.964 364.701 425.853 374.621 C 431.052 378.673 436.456 378.959 442.909 379.469 L 447.89 379.89 L 451.666 380.162 L 451.666 383.857 L 370.544 383.857 L 370.544 380.162 L 374.721 379.956 L 380.224 379.585 L 385.668 379.261 C 391.546 378.183 393.934 376.918 398.2 372.775 C 399.287 368.221 399.287 368.221 399.087 362.991 L 399.117 356.846 L 399.036 350.101 L 399.042 342.999 C 399.043 336.573 398.998 330.149 398.948 323.72 C 398.902 317.007 398.897 310.292 398.887 303.573 C 398.866 290.857 398.805 278.14 398.732 265.421 C 398.654 250.942 398.602 236.463 398.571 221.988 C 398.495 192.203 398.365 162.418 398.2 132.635 L 396.789 135.631 C 394.645 140.182 392.498 144.736 390.349 149.288 L 388.135 153.999 C 383.697 163.406 379.14 172.758 374.463 182.05 C 368.382 194.131 362.521 206.312 356.719 218.53 C 350.914 230.751 345.063 242.931 338.971 255.013 C 333.537 265.84 328.239 276.731 323.072 287.688 L 321.03 291.99 C 319.734 294.747 318.738 297.652 317.473 300.424 C 316.114 303.299 314.749 306.409 313.631 309.389 C 309.983 319.111 310.715 316.191 308.843 324.834 L 313.391 331.212 L 317.686 336.883 L 320.093 339.937 C 322.784 343.448 325.284 347.046 327.767 350.706 C 364.478 404.729 409.828 450.631 475.632 465.133 C 481.2 466.02 486.599 466.586 492.227 466.981 L 492.227 472.524 C 419.934 463.903 361.722 428.792 316.092 371.924 C 308.545 362.286 301.321 352.403 294.422 342.293 C 292.247 339.11 290.026 335.953 287.767 332.827 C 265.238 301.274 246.563 266.957 227.477 233.245 C 209.831 202.073 191.321 171.4 171.969 141.262 L 169.654 137.66 L 164.057 128.941 C 163.839 160.091 163.679 191.24 163.577 222.391 C 163.532 236.855 163.465 251.32 163.361 265.782 C 163.268 278.39 163.211 290.998 163.19 303.603 C 163.177 310.282 163.149 316.953 163.081 323.629 C 163.007 331.081 163.007 338.533 163.01 345.986 L 162.91 352.69 C 162.622 364.888 162.622 364.888 168.398 375.06 C 173.964 378.774 177.35 379.576 183.991 379.817 L 189.443 380.084 L 193.556 380.162 L 193.556 383.857 L 123.496 383.857 L 123.496 380.162 L 127.678 379.956 L 133.176 379.585 L 138.62 379.261 C 144.385 378.205 147.03 376.912 151.151 372.775 C 153.132 366.895 153.27 361.293 153.352 355.12 L 153.451 348.789 L 153.526 341.866 L 153.625 334.556 C 153.919 312.29 154.074 290.023 154.197 267.758 C 154.287 251.32 154.447 234.886 154.694 218.454 C 154.858 206.871 154.946 195.291 154.978 183.711 C 154.998 176.805 155.053 169.905 155.196 163.002 C 157.32 128.709 155.872 131.605 141.71 101.994 C 139.331 98.525 135.782 93.402 132.715 90.148 C 130.349 87.51 128.042 84.817 125.803 82.07 C 123.811 79.826 121.817 77.597 119.805 75.372 L 117.066 72.255 C 86.977 39.947 45.088 22.2 1.825 18.107 L 1.825 14.414 Z"
        fill="#0eae9b" style="stroke-width: 1;" id="object-0" />
</svg>